<svg xmlns="http://www.w3.org/2000/svg" data-name="Layer 1" width="878.63037" height="483" viewBox="0 0 878.63037 483" xmlns:xlink="http://www.w3.org/1999/xlink"><path d="M294.7164,621.20348c-19.51084,14.54436-25.04043,40.13465-25.04043,40.13465s26.10369,2.00928,45.61453-12.53511,25.04043-40.13465,25.04043-40.13465S314.22725,606.65916,294.7164,621.20348Z" transform="translate(-160.68481 -208.5)" fill="#f1f1f1"/><path d="M302.84375,628.03207c-9.37708,22.45621-32.86178,34.02822-32.86178,34.02822s-8.28141-24.83665,1.09568-47.29286,32.86172-34.02822,32.86172-34.02822S312.22084,605.57587,302.84375,628.03207Z" transform="translate(-160.68481 -208.5)" fill="#f1f1f1"/><path d="M864.18723,563.11405h-738.294a1.19069,1.19069,0,0,1,0-2.38137h738.294a1.19069,1.19069,0,0,1,0,2.38137Z" transform="translate(-160.68481 -208.5)" fill="#cacaca"/><circle cx="536.41985" cy="51.82497" r="51.82497" fill="#1976d2"/><path d="M673.16461,215.55231a84.70308,84.70308,0,0,0-84.70308,84.70308c0,46.78894,84.70308,168.24771,84.70308,168.24771s84.70308-121.45877,84.70308-168.24771A84.70308,84.70308,0,0,0,673.16461,215.55231Zm0,121.92206a37.21898,37.21898,0,1,1,37.21898-37.21898A37.21898,37.21898,0,0,1,673.16461,337.47437Z" transform="translate(-160.68481 -208.5)" fill="#1976d2"/><path d="M673.16461,215.55231a84.70308,84.70308,0,0,0-84.70308,84.70308c0,46.78894,84.70308,168.24771,84.70308,168.24771s84.70308-121.45877,84.70308-168.24771A84.70308,84.70308,0,0,0,673.16461,215.55231Zm0,121.92206a37.21898,37.21898,0,1,1,37.21898-37.21898A37.21898,37.21898,0,0,1,673.16461,337.47437Z" transform="translate(-160.68481 -208.5)" fill="#1976d2" opacity="0.5"/><path d="M376.5,208.5h-215a1,1,0,0,0,0,2h215a1,1,0,0,0,0-2Z" transform="translate(-160.68481 -208.5)" fill="#cacaca"/><path d="M307,208.5H224a1,1,0,0,0,0,2h83a1,1,0,0,0,0-2Z" transform="translate(-160.68481 -208.5)" fill="#cacaca"/><rect x="44" y="169" width="492" height="277" rx="3.5" fill="#f1f1f1"/><path d="M275.22151,470.18431a3.77983,3.77983,0,0,1-2.73939-6.52831l.00094-.00094L441.5481,294.53552a3.77607,3.77607,0,0,1,5.47784,0l169.1211,169.11954a3.77813,3.77813,0,1,1-5.34559,5.34559L444.28722,302.48432,277.96,468.80967A3.76838,3.76838,0,0,1,275.22151,470.18431Z" transform="translate(-160.68481 -208.5)" fill="#cacaca"/><circle cx="283.43671" cy="85.9763" r="25.35646" fill="#cacaca"/><path d="M444.12152,319.8763a25.35646,25.35646,0,1,1,25.35646-25.35646A25.3854,25.3854,0,0,1,444.12152,319.8763Zm0-48.71293a23.35646,23.35646,0,1,0,23.35646,23.35647A23.38287,23.38287,0,0,0,444.12152,271.16337Z" transform="translate(-160.68481 -208.5)" fill="#cacaca"/><path d="M409.36614,279.8763h69.51076a3.448,3.448,0,0,1,3.448,3.448v24.83215a3.448,3.448,0,0,1-3.448,3.448H409.36614a3.448,3.448,0,0,1-3.448-3.448V283.32433A3.448,3.448,0,0,1,409.36614,279.8763Z" transform="translate(-160.68481 -208.5)" fill="#fff"/><path d="M423.12223,288.75581a1.72401,1.72401,0,0,0-1.72400,1.72400v6.89599a1.72401,1.72401,0,0,0,1.72400,1.72399h42.00171a1.72401,1.72401,0,0,0,1.72399-1.72399v-6.89599a1.72401,1.72401,0,0,0-1.72399-1.72400Z" transform="translate(-160.68481 -208.5)" fill="#1976d2"/><path d="M536.12152,487.8763a25.35646,25.35646,0,1,1,25.35646-25.35646A25.3854,25.3854,0,0,1,536.12152,487.8763Zm0-48.71293a23.35646,23.35646,0,1,0,23.35646,23.35647A23.38287,23.38287,0,0,0,536.12152,439.16337Z" transform="translate(-160.68481 -208.5)" fill="#e6e6e6"/><path d="M501.36614,447.8763h69.51076a3.448,3.448,0,0,1,3.448,3.448v24.83215a3.448,3.448,0,0,1-3.448,3.448H501.36614a3.448,3.448,0,0,1-3.448-3.448V451.32433A3.448,3.448,0,0,1,501.36614,447.8763Z" transform="translate(-160.68481 -208.5)" fill="#fff"/><path d="M515.12223,456.75581a1.72401,1.72401,0,0,0-1.72400,1.72400v6.89599a1.72401,1.72401,0,0,0,1.72400,1.72399h42.00171a1.72401,1.72401,0,0,0,1.72399-1.72399v-6.89599a1.72401,1.72401,0,0,0-1.72399-1.72400Z" transform="translate(-160.68481 -208.5)" fill="#1976d2"/><path d="M352.12152,487.8763a25.35646,25.35646,0,1,1,25.35646-25.35646A25.3854,25.3854,0,0,1,352.12152,487.8763Zm0-48.71293a23.35646,23.35646,0,1,0,23.35646,23.35647A23.38287,23.38287,0,0,0,352.12152,439.16337Z" transform="translate(-160.68481 -208.5)" fill="#e6e6e6"/><path d="M317.36614,447.8763h69.51076a3.448,3.448,0,0,1,3.448,3.448v24.83215a3.448,3.448,0,0,1-3.448,3.448H317.36614a3.448,3.448,0,0,1-3.448-3.448V451.32433A3.448,3.448,0,0,1,317.36614,447.8763Z" transform="translate(-160.68481 -208.5)" fill="#fff"/><path d="M331.12223,456.75581a1.72401,1.72401,0,0,0-1.72400,1.72400v6.89599a1.72401,1.72401,0,0,0,1.72400,1.72399h42.00171a1.72401,1.72401,0,0,0,1.72399-1.72399v-6.89599a1.72401,1.72401,0,0,0-1.72399-1.72400Z" transform="translate(-160.68481 -208.5)" fill="#1976d2"/><polygon points="589 209.5 325 209.5 325 201.5 581 201.5 581 171.5 325 171.5 325 163.5 589 163.5 589 209.5" fill="#cacaca"/><polygon points="589 319.5 325 319.5 325 311.5 581 311.5 581 281.5 325 281.5 325 273.5 589 273.5 589 319.5" fill="#cacaca"/><polygon points="589 429.5 325 429.5 325 421.5 581 421.5 581 391.5 325 391.5 325 383.5 589 383.5 589 429.5" fill="#cacaca"/><path d="M483.18088,679.91882c0,63.20412,39.65095,114.34312,88.65039,114.34312" transform="translate(-160.68481 -208.5)" fill="#f1f1f1"/><path d="M571.83127,794.26194c0-63.91429,44.24816-115.63291,98.93038-115.63291" transform="translate(-160.68481 -208.5)" fill="#1976d2"/><path d="M515.5058,685.92563c0,60.03721,25.28466,108.33631,56.32547,108.33631" transform="translate(-160.68481 -208.5)" fill="#1976d2"/><path d="M571.83127,794.26194c0-81.66826,51.144-147.75317,114.2325-147.75317" transform="translate(-160.68481 -208.5)" fill="#f1f1f1"/><path d="M552.67312,795.0842s12.5723-.38722,16.36127-3.0853,19.33937-5.91973,20.27932-1.5926,18.89383,21.52115,4.69977,21.63564-32.98069-2.21094-36.76606-4.51451S552.67312,795.0842,552.67312,795.0842Z" transform="translate(-160.68481 -208.5)" fill="#a8a8a8"/><path d="M594.20043,810.87065c-14.19406.11452-32.98068-2.21092-36.766-4.51451-2.88-1.75429-4.02759-8.06869-4.41158-10.98609-.26593.01143-.41971.01636-.41971.01636s.7963,10.17395,4.58168,12.47751,22.57195,4.629,36.766,4.51451c4.0984-.03312,5.51662-1.49437,5.43905-3.6607C598.71716,810.136,597.08056,810.84961,594.20043,810.87065Z" transform="translate(-160.68481 -208.5)" opacity="0.2"/><path d="M797.29851,552.43759s-21.11907-3.04273-21.11907-8.21881,21.11907,0,21.11907,0Z" transform="translate(-160.68481 -208.5)" fill="#e6e6e6"/><path d="M797.29851,559.43759s-21.11907-3.04273-21.11907-8.21881,21.11907,0,21.11907,0Z" transform="translate(-160.68481 -208.5)" fill="#e6e6e6"/><path d="M797.29851,566.43759s-21.11907-3.04273-21.11907-8.21881,21.11907,0,21.11907,0Z" transform="translate(-160.68481 -208.5)" fill="#e6e6e6"/><path d="M898.26,208.5h-168a1,1,0,0,0,0,2h168a1,1,0,0,0,0-2Z" transform="translate(-160.68481 -208.5)" fill="#cacaca"/><path d="M900.76,208.5h-59a1,1,0,0,0,0,2h59a1,1,0,0,0,0-2Z" transform="translate(-160.68481 -208.5)" fill="#cacaca"/><path d="M810.26,208.5h-59a1,1,0,0,0,0,2h59a1,1,0,0,0,0-2Z" transform="translate(-160.68481 -208.5)" fill="#cacaca"/><path d="M872.26,246.5h-142a1,1,0,0,0,0,2h142a1,1,0,0,0,0-2Z" transform="translate(-160.68481 -208.5)" fill="#cacaca"/><path d="M874.76,246.5h-59a1,1,0,0,0,0,2h59a1,1,0,0,0,0-2Z" transform="translate(-160.68481 -208.5)" fill="#cacaca"/><path d="M784.26,246.5h-59a1,1,0,0,0,0,2h59a1,1,0,0,0,0-2Z" transform="translate(-160.68481 -208.5)" fill="#cacaca"/><path d="M872.26,284.5h-142a1,1,0,0,0,0,2h142a1,1,0,0,0,0-2Z" transform="translate(-160.68481 -208.5)" fill="#cacaca"/><path d="M874.76,284.5h-59a1,1,0,0,0,0,2h59a1,1,0,0,0,0-2Z" transform="translate(-160.68481 -208.5)" fill="#cacaca"/><path d="M784.26,284.5h-59a1,1,0,0,0,0,2h59a1,1,0,0,0,0-2Z" transform="translate(-160.68481 -208.5)" fill="#cacaca"/><path d="M872.26,322.5h-142a1,1,0,0,0,0,2h142a1,1,0,0,0,0-2Z" transform="translate(-160.68481 -208.5)" fill="#cacaca"/><path d="M874.76,322.5h-59a1,1,0,0,0,0,2h59a1,1,0,0,0,0-2Z" transform="translate(-160.68481 -208.5)" fill="#cacaca"/><path d="M784.26,322.5h-59a1,1,0,0,0,0,2h59a1,1,0,0,0,0-2Z" transform="translate(-160.68481 -208.5)" fill="#cacaca"/><path d="M872.26,360.5h-142a1,1,0,0,0,0,2h142a1,1,0,0,0,0-2Z" transform="translate(-160.68481 -208.5)" fill="#cacaca"/><path d="M874.76,360.5h-59a1,1,0,0,0,0,2h59a1,1,0,0,0,0-2Z" transform="translate(-160.68481 -208.5)" fill="#cacaca"/><path d="M784.26,360.5h-59a1,1,0,0,0,0,2h59a1,1,0,0,0,0-2Z" transform="translate(-160.68481 -208.5)" fill="#cacaca"/><path d="M872.26,398.5h-142a1,1,0,0,0,0,2h142a1,1,0,0,0,0-2Z" transform="translate(-160.68481 -208.5)" fill="#cacaca"/><path d="M874.76,398.5h-59a1,1,0,0,0,0,2h59a1,1,0,0,0,0-2Z" transform="translate(-160.68481 -208.5)" fill="#cacaca"/><path d="M784.26,398.5h-59a1,1,0,0,0,0,2h59a1,1,0,0,0,0-2Z" transform="translate(-160.68481 -208.5)" fill="#cacaca"/><path d="M872.26,436.5h-142a1,1,0,0,0,0,2h142a1,1,0,0,0,0-2Z" transform="translate(-160.68481 -208.5)" fill="#cacaca"/><path d="M874.76,436.5h-59a1,1,0,0,0,0,2h59a1,1,0,0,0,0-2Z" transform="translate(-160.68481 -208.5)" fill="#cacaca"/><path d="M784.26,436.5h-59a1,1,0,0,0,0,2h59a1,1,0,0,0,0-2Z" transform="translate(-160.68481 -208.5)" fill="#cacaca"/><path d="M872.26,474.5h-142a1,1,0,0,0,0,2h142a1,1,0,0,0,0-2Z" transform="translate(-160.68481 -208.5)" fill="#cacaca"/><path d="M874.76,474.5h-59a1,1,0,0,0,0,2h59a1,1,0,0,0,0-2Z" transform="translate(-160.68481 -208.5)" fill="#cacaca"/><path d="M784.26,474.5h-59a1,1,0,0,0,0,2h59a1,1,0,0,0,0-2Z" transform="translate(-160.68481 -208.5)" fill="#cacaca"/><path d="M872.26,512.5h-142a1,1,0,0,0,0,2h142a1,1,0,0,0,0-2Z" transform="translate(-160.68481 -208.5)" fill="#cacaca"/><path d="M874.76,512.5h-59a1,1,0,0,0,0,2h59a1,1,0,0,0,0-2Z" transform="translate(-160.68481 -208.5)" fill="#cacaca"/><path d="M784.26,512.5h-59a1,1,0,0,0,0,2h59a1,1,0,0,0,0-2Z" transform="translate(-160.68481 -208.5)" fill="#cacaca"/></svg>
